<?xml version="1.0" encoding="UTF-8" standalone="no"?>
<!-- Created with Inkscape (http://www.inkscape.org/) -->

<svg
   width="100mm"
   height="100mm"
   viewBox="0 0 100 99.999999"
   version="1.1"
   id="svg12"
   inkscape:version="1.2.2 (b0a8486541, 2022-12-01)"
   sodipodi:docname="icon.svg"
   xmlns:inkscape="http://www.inkscape.org/namespaces/inkscape"
   xmlns:sodipodi="http://sodipodi.sourceforge.net/DTD/sodipodi-0.dtd"
   xmlns:xlink="http://www.w3.org/1999/xlink"
   xmlns="http://www.w3.org/2000/svg"
   xmlns:svg="http://www.w3.org/2000/svg">
  <sodipodi:namedview
     id="namedview14"
     pagecolor="#505050"
     bordercolor="#eeeeee"
     borderopacity="1"
     inkscape:showpageshadow="0"
     inkscape:pageopacity="0"
     inkscape:pagecheckerboard="0"
     inkscape:deskcolor="#505050"
     inkscape:document-units="mm"
     showgrid="false"
     inkscape:zoom="2"
     inkscape:cx="93.75"
     inkscape:cy="187.5"
     inkscape:window-width="1920"
     inkscape:window-height="939"
     inkscape:window-x="0"
     inkscape:window-y="32"
     inkscape:window-maximized="1"
     inkscape:current-layer="layer3" />
  <defs
     id="defs9">
    <linearGradient
       inkscape:collect="always"
       id="linearGradient14476">
      <stop
         style="stop-color:#ffffff;stop-opacity:1;"
         offset="0"
         id="stop14474" />
      <stop
         style="stop-color:#570061;stop-opacity:1;"
         offset="1"
         id="stop14472" />
    </linearGradient>
    <linearGradient
       inkscape:collect="always"
       id="linearGradient14468">
      <stop
         style="stop-color:#b63900;stop-opacity:1;"
         offset="0"
         id="stop14464" />
      <stop
         style="stop-color:#ffffff;stop-opacity:1;"
         offset="1"
         id="stop14466" />
    </linearGradient>
    <linearGradient
       inkscape:collect="always"
       id="linearGradient14097">
      <stop
         style="stop-color:#b63900;stop-opacity:1;"
         offset="0"
         id="stop14093" />
      <stop
         style="stop-color:#b63900;stop-opacity:0;"
         offset="1"
         id="stop14095" />
    </linearGradient>
    <linearGradient
       inkscape:collect="always"
       id="linearGradient13943">
      <stop
         style="stop-color:#570061;stop-opacity:1;"
         offset="0.30492213"
         id="stop13939" />
      <stop
         style="stop-color:#570061;stop-opacity:0;"
         offset="1"
         id="stop13941" />
    </linearGradient>
    <linearGradient
       id="linearGradient6191"
       inkscape:swatch="solid">
      <stop
         style="stop-color:#000000;stop-opacity:1;"
         offset="0"
         id="stop6189" />
    </linearGradient>
    <linearGradient
       inkscape:collect="always"
       xlink:href="#linearGradient13943"
       id="linearGradient13945"
       x1="80.317398"
       y1="80.892433"
       x2="120.8036"
       y2="64.122505"
       gradientUnits="userSpaceOnUse"
       spreadMethod="repeat"
       gradientTransform="rotate(22.5,39.217893,107.45533)" />
    <linearGradient
       inkscape:collect="always"
       xlink:href="#linearGradient14097"
       id="linearGradient14099"
       x1="79.370209"
       y1="81.055779"
       x2="38.572796"
       y2="97.95462"
       gradientUnits="userSpaceOnUse"
       gradientTransform="rotate(22.5,39.217893,107.45533)" />
    <linearGradient
       inkscape:collect="always"
       xlink:href="#linearGradient14468"
       id="linearGradient14470"
       x1="100.53888"
       y1="97.547852"
       x2="135.17001"
       y2="97.547852"
       gradientUnits="userSpaceOnUse"
       gradientTransform="translate(1.48966,1.8005717)" />
    <linearGradient
       inkscape:collect="always"
       xlink:href="#linearGradient14476"
       id="linearGradient14478"
       x1="37.319366"
       y1="99.267654"
       x2="71.35659"
       y2="99.267654"
       gradientUnits="userSpaceOnUse"
       gradientTransform="translate(1.48966,1.8005717)" />
  </defs>
  <g
     inkscape:groupmode="layer"
     id="layer3"
     inkscape:label="Background"
     style="fill:#000000;fill-opacity:1;stroke:none"
     transform="translate(19.183304,-17.970039)">
    <path
       sodipodi:type="star"
       style="opacity:1;fill:#000000;fill-opacity:1;stroke:none;stroke-width:1.265;stroke-dasharray:none;stroke-opacity:1;paint-order:normal"
       id="path14196"
       inkscape:flatsided="false"
       sodipodi:sides="4"
       sodipodi:cx="29.677589"
       sodipodi:cy="66.830933"
       sodipodi:r1="48.860893"
       sodipodi:r2="48.860893"
       sodipodi:arg1="0.78539816"
       sodipodi:arg2="1.5707963"
       inkscape:rounded="0"
       inkscape:randomized="0"
       d="M 64.227458,101.3808 29.677591,115.69183 -4.8722794,101.3808 -19.183304,66.830934 -4.8722797,32.281064 29.677588,17.970039 64.227458,32.281064 78.538483,66.830931 Z"
       transform="matrix(1.0233132,0.42387023,-0.42387023,1.0233132,28.774868,-12.998386)" />
  </g>
  <g
     inkscape:label="Octagon"
     inkscape:groupmode="layer"
     id="layer1"
     transform="translate(-36.71509,-49.348421)">
    <path
       id="path234"
       style="fill:url(#linearGradient13945);fill-opacity:1;stroke:none;stroke-width:0.564999"
       inkscape:transform-center-y="-1.3432942e-06"
       d="m 87.640358,137.86003 15.026472,-1e-5 22.55986,-22.55986 V 83.396163 L 102.66683,60.836816 H 87.640361 Z"
       inkscape:label="Purple"
       sodipodi:nodetypes="ccccccc" />
    <path
       id="path1906"
       style="fill:url(#linearGradient14099);fill-opacity:1;stroke:none;stroke-width:0.564999"
       inkscape:transform-center-y="-1.3432942e-06"
       d="m 85.789311,60.836816 -15.026474,1e-6 -22.559346,22.559346 -10e-7,31.904007 22.55935,22.55985 h 15.026471 z"
       inkscape:label="Orange" />
  </g>
  <g
     inkscape:groupmode="layer"
     id="layer2"
     inkscape:label="Lines"
     transform="translate(-36.71509,-49.348421)"
     style="display:none">
    <path
       id="rect12283"
       style="fill:url(#linearGradient14478);fill-opacity:1;stroke:none;stroke-width:0.564999;stroke-opacity:1"
       d="m 67.991538,82.928496 -1.69292,1.179256 3.427181,4.920113 -6.994405,-2.395203 -0.668176,1.951819 9.657292,3.307292 4.287076,6.154663 H 64.852195 l -0.01964,-0.03359 -0.05788,0.03359 h -6.852811 l -5.255493,-3.451469 -1.132231,1.724959 5.498889,3.610632 0.04806,-0.07338 v 0.09922 h 4.407483 l -8.124569,4.722202 1.03663,1.78387 11.194148,-6.506072 h 5.723165 l -7.388696,18.485702 1.915645,0.76585 7.695138,-19.251552 h 3.798218 l 0.01964,0.02842 0.04082,-0.02842 h 6.646623 v -1.909961 h -5.523177 z"
       inkscape:label="Digital" />
    <path
       id="path13583"
       style="fill:url(#linearGradient14470);fill-opacity:1;stroke-width:1.265"
       d="m 99.837177,125.06569 c -0.483904,-1.00498 -1.249489,-2.24535 -2.422074,-3.44423 -0.392927,-0.40004 -0.837412,-0.79756 -1.283643,-1.2299 -0.406958,-0.39429 -0.827459,-0.8321 -1.177189,-1.33584 -0.332451,-0.46213 -0.629688,-1.018 -0.763778,-1.64176 -0.06414,-0.29846 -0.08968,-0.61436 -0.06511,-0.93121 0.02415,-0.31134 0.09661,-0.62444 0.229443,-0.92087 0.132028,-0.29462 0.317141,-0.56044 0.536918,-0.79478 0.219564,-0.23412 0.473301,-0.43623 0.741557,-0.60514 0.542696,-0.3418 1.144877,-0.55447 1.713074,-0.72037 0.5943,-0.16181 1.182666,-0.28735 1.717725,-0.45216 0.563513,-0.17359 1.05001,-0.38282 1.46347,-0.69092 0.31224,-0.23627 0.568,-0.52486 0.76326,-0.83354 0.21234,-0.33569 0.35085,-0.69087 0.42322,-1.03714 0.0816,-0.39026 0.08,-0.77077 0.0289,-1.11156 -0.005,-0.0355 -0.0117,-0.0698 -0.0181,-0.10439 -0.49531,-0.35992 -0.94156,-0.76028 -1.34617,-1.17409 -0.507657,-0.5192 -0.9626,-1.07146 -1.369417,-1.5968 -0.730544,-0.97255 -1.37389,-1.92868 -2.0252,-2.7497 -0.717191,-0.90408 -1.406179,-1.60911 -2.184879,-2.13992 -0.695456,-0.46927 -1.356157,-0.65674 -2.060022,-0.83185 -0.859281,-0.21377 -1.982535,-0.22204 -2.632946,-0.32326 l 0.0058,-1.158952 -0.0081,-1.194242 c 0.01148,-0.0011 0.02362,-0.0015 0.03514,-0.0026 l -0.01395,-0.05013 c 1.480442,-0.418785 3.453726,-1.389319 4.949569,-3.344499 1.125897,-1.47162 1.934693,-3.51928 1.923397,-5.73815 0.0034,-0.75136 -0.08203,-1.51801 -0.217558,-2.34714 -0.129291,-0.79097 -0.302022,-1.61611 -0.452169,-2.47169 -0.14665,-0.83524 -0.271545,-1.72158 -0.298173,-2.61586 -0.02643,-0.88764 0.04374,-1.79002 0.287321,-2.67477 0.384869,-1.33946 1.151888,-2.52563 2.145606,-3.40341 1.04408,-0.92226 2.304491,-1.4783 3.544481,-1.6769 1.39679,-0.2237 2.72577,0.0049 3.8003,0.4594 1.41813,0.59953 2.36989,1.5602 2.94556,2.33681 -0.581,-0.78379 -1.57653,-1.69023 -3.0055,-2.18023 -1.08024,-0.37042 -2.36521,-0.47583 -3.64528,-0.15193 -1.13606,0.28746 -2.224785,0.90769 -3.063886,1.80816 -0.798796,0.85722 -1.345792,1.94281 -1.55391,3.08663 -0.147242,0.75101 -0.151986,1.52392 -0.07028,2.30632 0.08268,0.79173 0.253098,1.58998 0.451652,2.37867 0.203433,0.80838 0.436144,1.62391 0.632519,2.45308 0.204323,0.86273 0.368309,1.73404 0.424781,2.63085 8.88e-4,0.01622 0.0013,0.03236 0.0021,0.04857 0.05703,0.14026 0.128698,0.28466 0.220141,0.42995 0.177337,0.28177 0.425127,0.56118 0.745175,0.7798 0.283448,0.19361 0.629058,0.34264 1.016988,0.41393 0.35726,0.0657 0.74319,0.06381 1.12085,-0.02739 0.44888,-0.0937 0.90086,-0.30805 1.33276,-0.62735 0.41793,-0.3091 0.78932,-0.69436 1.13843,-1.12138 0.33348,-0.44083 0.63652,-0.91247 0.94516,-1.37718 0.32094,-0.48324 0.64021,-0.94671 1.00924,-1.37666 1.14864,-1.36702 2.68043,-2.22285 4.13722,-2.58744 1.82391,-0.45646 3.45971,-0.17301 4.59558,0.22479 -1.1418,-0.39414 -2.77964,-0.62796 -4.56406,-0.10852 -1.4232,0.41429 -2.86226,1.3077 -3.90829,2.67994 -0.32443,0.43538 -0.60076,0.90392 -0.88367,1.40457 -0.26799,0.47425 -0.5478,0.9883 -0.85937,1.47019 -0.29455,0.49343 -0.63904,0.98468 -1.06816,1.41335 -0.44463,0.44407 -0.9741,0.81142 -1.57201,1.02785 -0.52213,0.17563 -1.06572,0.22508 -1.58078,0.17311 -0.55888,-0.0564 -1.083193,-0.2313 -1.535299,-0.49506 -0.133117,-0.07765 -0.258363,-0.16213 -0.376205,-0.25166 -0.255137,1.89743 -0.980205,3.63032 -1.963188,5.0245 -0.794585,1.126967 -1.723148,2.007453 -2.676322,2.68459 0.644682,0.259785 1.291773,0.60621 1.907894,1.059884 0.73673,0.538799 1.368553,1.175799 1.947168,1.876359 0.597993,0.28286 1.363601,0.4927 2.237072,0.43873 0.91012,-0.0562 1.93107,-0.41676 2.75744,-1.16478 0.44714,-0.41018 0.82335,-0.917333 1.19478,-1.527547 0.35214,-0.578523 0.6854,-1.230574 1.06299,-1.892908 0.38149,-0.625611 0.82552,-1.286478 1.38751,-1.862418 0.55647,-0.57049 1.23244,-1.05516 2.00866,-1.31155 0.56536,-0.19802 1.14387,-0.25931 1.70016,-0.25476 0.564,0.005 1.12796,0.07737 1.64899,0.15709 0.54965,0.0842 1.05575,0.17172 1.57613,0.21963 0.53402,0.0492 1.0431,0.05181 1.53841,-0.03359 0.54181,-0.0942 1.04945,-0.29669 1.49345,-0.56999 0.48268,-0.2971 0.88556,-0.67422 1.19476,-1.09141 0.34852,-0.47024 0.57381,-0.9841 0.70125,-1.47691 0.15579,-0.6024 0.16503,-1.16677 0.0971,-1.64228 0.0677,0.47443 0.0719,1.03934 -0.0615,1.65106 -0.10951,0.50181 -0.31166,1.03256 -0.64182,1.53428 -0.29313,0.44547 -0.68506,0.8629 -1.16944,1.20716 -0.44566,0.31674 -0.96781,0.57012 -1.54409,0.71417 -0.52663,0.13242 -1.06914,0.17145 -1.63142,0.16484 -0.54217,-0.006 -1.07473,-0.05406 -1.61799,-0.09146 -0.52201,-0.0359 -1.05005,-0.05862 -1.56063,-0.01912 -0.50226,0.0389 -0.975,0.13693 -1.40715,0.33228 -0.57629,0.27661 -1.07025,0.73207 -1.46554,1.25728 -0.0298,0.0396 -0.058,0.08052 -0.0868,0.12093 0.44403,-0.10535 0.9306,-0.1277 1.42265,-0.03566 0.59276,0.11088 1.15753,0.383126 1.61386,0.787032 0.45629,0.403865 0.78059,0.918578 0.95394,1.457275 0.24055,0.720719 0.19895,1.466796 -0.007,2.066526 -0.27679,0.80729 -0.81376,1.32435 -1.2144,1.61075 0.40621,-0.29038 0.90489,-0.83739 1.11001,-1.64226 0.15192,-0.59615 0.1215,-1.292017 -0.1633,-1.929079 -0.21584,-0.467806 -0.56043,-0.878416 -0.98857,-1.169954 -0.42808,-0.291499 -0.91958,-0.451199 -1.39681,-0.481108 -0.52437,-0.03286 -1.00887,0.08904 -1.39682,0.28267 -0.3405,0.169948 -0.60023,0.388461 -0.79478,0.595313 -0.0177,0.03844 -0.0357,0.07667 -0.0532,0.115238 -0.31609,0.642734 -0.61399,1.325862 -0.96738,1.99161 -0.36865,0.69448 -0.79738,1.36917 -1.36994,1.95749 -1.06323,1.10226 -2.44652,1.70069 -3.74965,1.85001 -0.24637,0.0282 -0.487316,0.0405 -0.722436,0.0398 0.296166,0.44922 0.589186,0.8981 0.888836,1.33428 0.34493,0.51954 0.71245,1.03837 1.11465,1.51929 0.38638,0.46199 0.80737,0.89219 1.27847,1.26194 0.4547,0.3572 0.96918,0.6583 1.51414,0.86144 0.53413,0.19911 1.09284,0.3029 1.65365,0.27544 0.70941,-0.0141 1.43436,-0.23752 2.13475,-0.59635 0.70938,-0.36359 1.36364,-0.84654 2.00349,-1.35185 0.65092,-0.54896 1.2781,-1.10851 1.96164,-1.60972 0.7086,-0.51959 1.43976,-0.94629 2.24793,-1.20355 0.87677,-0.27992 1.78201,-0.32186 2.61793,-0.18862 0.90935,0.14495 1.73136,0.49504 2.40243,0.97772 0.75576,0.54361 1.30658,1.24026 1.67742,1.94459 0.45309,0.86053 0.63489,1.72268 0.65732,2.46548 -0.0225,-0.74395 -0.22375,-1.60818 -0.69608,-2.4443 -0.3876,-0.68614 -0.95869,-1.35337 -1.71772,-1.85105 -0.67328,-0.44145 -1.48287,-0.73913 -2.358,-0.83302 -0.80401,-0.0863 -1.6543,0.002 -2.45101,0.30696 -0.73477,0.28173 -1.39644,0.72189 -2.04225,1.25935 -0.63012,0.52441 -1.19815,1.09881 -1.82677,1.70171 -0.48442,0.49488 -1.01807,1.01555 -1.61798,1.47381 0.25516,0.0511 0.52152,0.12632 0.79375,0.23306 0.732,0.28701 1.42173,0.7726 1.95491,1.42885 0.50666,0.59305 0.84356,1.30297 1.0077,2.03347 0.17271,0.76863 0.15125,1.54137 -0.0367,2.23914 -0.21055,0.78165 -0.61932,1.43666 -1.07693,1.93373 -0.60743,0.65981 -1.27991,1.02896 -1.81591,1.23093 0.53784,-0.20267 1.19883,-0.59066 1.77405,-1.26762 0.4336,-0.51029 0.80054,-1.17001 0.96532,-1.93425 0.14681,-0.68093 0.12538,-1.41885 -0.0775,-2.13423 -0.19315,-0.68107 -0.54493,-1.31991 -1.03663,-1.83348 -0.54984,-0.54424 -1.21088,-0.9028 -1.86552,-1.08831 -0.64185,-0.18189 -1.22121,-0.18643 -1.67225,-0.14159 -0.54224,0.28648 -1.13616,0.50927 -1.77302,0.60926 -0.76686,0.10373 -1.53395,0.025 -2.25412,-0.17673 -0.46407,-0.12996 -0.91028,-0.31141 -1.33069,-0.52968 -0.0101,0.258 -0.0443,0.52461 -0.1111,0.79478 -0.11189,0.45221 -0.31039,0.90366 -0.59945,1.31981 -0.26581,0.38268 -0.60832,0.73453 -1.02008,1.01648 -0.53152,0.36832 -1.123545,0.59005 -1.734778,0.75448 -0.585268,0.15744 -1.1859,0.26172 -1.758549,0.3948 -0.553154,0.11739 -1.104955,0.26905 -1.599902,0.52917 -0.242766,0.12753 -0.473152,0.2839 -0.674894,0.46767 -0.201615,0.18366 -0.374127,0.39425 -0.502812,0.62994 -0.129738,0.23756 -0.213888,0.49927 -0.256315,0.77153 -0.04319,0.27717 -0.04264,0.56202 -0.0047,0.83871 0.08009,0.58278 0.318536,1.12713 0.612366,1.60041 0.324108,0.5025 0.721672,0.94579 1.115694,1.35186 0.4304,0.44357 0.864506,0.85467 1.248503,1.26659 1.149856,1.22827 1.896992,2.48097 2.380216,3.48454 z M 115.18715,83.625337 c 0.076,0.02664 0.15023,0.05314 0.22169,0.08062 -0.0716,-0.02753 -0.14557,-0.05434 -0.22169,-0.08062 z"
       sodipodi:nodetypes="ccscssssccscscccscscscccccscscscssccssscscsccssccccscscscscccsscscccccscccccccsssccsscccccscsscccscsssccsccccscscccscssscssccsccscssscssscscccccscsccsssccscccccc"
       inkscape:label="Analog" />
  </g>
</svg>
